<svg width="25" height="24" viewBox="0 0 25 24" fill="none" xmlns="http://www.w3.org/2000/svg">
<path d="M9.00076 0.746267L9.64703 1.1194V1.86567L9.00076 2.2388L8.35449 1.86567V1.1194L9.00076 0.746267Z" fill="#1B253A"/>
<path d="M12.0041 0.746267L12.6503 1.1194V1.86567L12.0041 2.2388L11.3578 1.86567V1.1194L12.0041 0.746267Z" fill="#1B253A"/>
<path d="M15.0073 0L16.2998 0.746269V2.23881L15.0073 2.98507L13.7446 2.23881V0.746269L15.0073 0Z" fill="#1B253A"/>
<path d="M4.49584 2.62687L5.78838 3.37313V4.86567L4.49584 5.61194L3.23315 4.86567V3.37313L4.49584 2.62687Z" fill="#1B253A"/>
<path d="M7.49914 2.62687L8.79167 3.37313V4.86567L7.49914 5.61194L6.23645 4.86567V3.37313L7.49914 2.62687Z" fill="#1B253A"/>
<path d="M10.5025 3.37313L11.1487 3.74627V4.49253L10.5025 4.86567L9.8562 4.49253V3.74627L10.5025 3.37313Z" fill="#1B253A"/>
<path d="M13.5058 3.37313L14.152 3.74627V4.49253L13.5058 4.86567L12.8595 4.49253V3.74627L13.5058 3.37313Z" fill="#1B253A"/>
<path d="M16.509 2.62687L17.8016 3.37313V4.86567L16.509 5.61194L15.2463 4.86567V3.37313L16.509 2.62687Z" fill="#1B253A"/>
<path d="M19.5124 3.37313L20.1586 3.74627V4.49253L19.5124 4.86567L18.8661 4.49253V3.74627L19.5124 3.37313Z" fill="#1B253A"/>
<path d="M2.99429 6L3.64056 6.37313V7.1194L2.99429 7.49254L2.34802 7.1194V6.37313L2.99429 6Z" fill="#1B253A"/>
<path d="M5.99759 6L6.64386 6.37313V7.1194L5.99759 7.49254L5.35132 7.1194V6.37313L5.99759 6Z" fill="#1B253A"/>
<path d="M9.00085 5.25373L10.2934 6V7.49254L9.00085 8.2388L7.73816 7.49254V6L9.00085 5.25373Z" fill="#1B253A"/>
<path d="M12.0041 5.25373L13.2967 6V7.49254L12.0041 8.2388L10.7415 7.49254V6L12.0041 5.25373Z" fill="#1B253A"/>
<path d="M15.0075 6L15.6537 6.37313V7.1194L15.0075 7.49254L14.3612 7.1194V6.37313L15.0075 6Z" fill="#1B253A"/>
<path d="M18.0107 6L18.6569 6.37313V7.1194L18.0107 7.49254L17.3644 7.1194V6.37313L18.0107 6Z" fill="#1B253A"/>
<path d="M21.0139 6L21.6602 6.37313V7.1194L21.0139 7.49254L20.3677 7.1194V6.37313L21.0139 6Z" fill="#1B253A"/>
<path d="M1.49255 7.8806L2.78508 8.62686V10.1194L1.49255 10.8657L0.229858 10.1194V8.62686L1.49255 7.8806Z" fill="#1B253A"/>
<path d="M4.49584 7.8806L5.78838 8.62686V10.1194L4.49584 10.8657L3.23315 10.1194V8.62686L4.49584 7.8806Z" fill="#1B253A"/>
<path d="M7.49918 8.62687L8.14545 9V9.74627L7.49918 10.1194L6.85291 9.74627V9L7.49918 8.62687Z" fill="#1B253A"/>
<path d="M10.5024 7.8806L11.795 8.62686V10.1194L10.5024 10.8657L9.23975 10.1194V8.62686L10.5024 7.8806Z" fill="#1B253A"/>
<path d="M13.5058 8.62687L14.152 9V9.74627L13.5058 10.1194L12.8595 9.74627V9L13.5058 8.62687Z" fill="#1B253A"/>
<path d="M16.509 7.8806L17.8016 8.62686V10.1194L16.509 10.8657L15.2463 10.1194V8.62686L16.509 7.8806Z" fill="#1B253A"/>
<path d="M19.5122 8.62687L20.1585 9V9.74627L19.5122 10.1194L18.866 9.74627V9L19.5122 8.62687Z" fill="#1B253A"/>
<path d="M22.5155 7.8806L23.808 8.62686V10.1194L22.5155 10.8657L21.2528 10.1194V8.62686L22.5155 7.8806Z" fill="#1B253A"/>
<path d="M2.99429 11.2537L3.64056 11.6269V12.3731L2.99429 12.7463L2.34802 12.3731V11.6269L2.99429 11.2537Z" fill="#1B253A"/>
<path d="M5.99755 10.5075L7.29009 11.2537V12.7463L5.99755 13.4925L4.73486 12.7463V11.2537L5.99755 10.5075Z" fill="#1B253A"/>
<path d="M9.00088 11.2537L9.64715 11.6269V12.3731L9.00088 12.7463L8.35461 12.3731V11.6269L9.00088 11.2537Z" fill="#1B253A"/>
<path d="M12.0041 10.5075L13.2967 11.2537V12.7463L12.0041 13.4925L10.7415 12.7463V11.2537L12.0041 10.5075Z" fill="#1B253A"/>
<path d="M15.0075 11.2537L15.6537 11.6269V12.3731L15.0075 12.7463L14.3612 12.3731V11.6269L15.0075 11.2537Z" fill="#1B253A"/>
<path d="M18.0107 11.2537L18.6569 11.6269V12.3731L18.0107 12.7463L17.3644 12.3731V11.6269L18.0107 11.2537Z" fill="#1B253A"/>
<path d="M21.0139 10.5075L22.3064 11.2537V12.7463L21.0139 13.4925L19.7512 12.7463V11.2537L21.0139 10.5075Z" fill="#1B253A"/>
<path d="M1.49258 13.8806L2.13885 14.2537V15L1.49258 15.3731L0.846313 15V14.2537L1.49258 13.8806Z" fill="#1B253A"/>
<path d="M4.49588 13.8806L5.14215 14.2537V15L4.49588 15.3731L3.84961 15V14.2537L4.49588 13.8806Z" fill="#1B253A"/>
<path d="M7.49918 13.8806L8.14545 14.2537V15L7.49918 15.3731L6.85291 15V14.2537L7.49918 13.8806Z" fill="#1B253A"/>
<path d="M10.5025 13.8806L11.1487 14.2537V15L10.5025 15.3731L9.8562 15V14.2537L10.5025 13.8806Z" fill="#1B253A"/>
<path d="M13.5057 13.1343L14.7983 13.8806V15.3731L13.5057 16.1194L12.243 15.3731V13.8806L13.5057 13.1343Z" fill="#1B253A"/>
<path d="M16.509 13.1343L17.8016 13.8806V15.3731L16.509 16.1194L15.2463 15.3731V13.8806L16.509 13.1343Z" fill="#1B253A"/>
<path d="M19.5122 13.1343L20.8047 13.8806V15.3731L19.5122 16.1194L18.2495 15.3731V13.8806L19.5122 13.1343Z" fill="#1B253A"/>
<path d="M22.5155 13.1343L23.808 13.8806V15.3731L22.5155 16.1194L21.2528 15.3731V13.8806L22.5155 13.1343Z" fill="#1B253A"/>
<path d="M2.99429 16.5075L3.64056 16.8806V17.6269L2.99429 18L2.34802 17.6269V16.8806L2.99429 16.5075Z" fill="#1B253A"/>
<path d="M5.99755 15.7612L7.29009 16.5075V18L5.99755 18.7463L4.73486 18V16.5075L5.99755 15.7612Z" fill="#1B253A"/>
<path d="M9.00088 16.5075L9.64715 16.8806V17.6269L9.00088 18L8.35461 17.6269V16.8806L9.00088 16.5075Z" fill="#1B253A"/>
<path d="M12.0041 15.7612L13.2967 16.5075V18L12.0041 18.7463L10.7415 18V16.5075L12.0041 15.7612Z" fill="#1B253A"/>
<path d="M15.0075 16.5075L15.6537 16.8806V17.6269L15.0075 18L14.3612 17.6269V16.8806L15.0075 16.5075Z" fill="#1B253A"/>
<path d="M18.0107 16.5075L18.6569 16.8806V17.6269L18.0107 18L17.3644 17.6269V16.8806L18.0107 16.5075Z" fill="#1B253A"/>
<path d="M21.0139 16.5075L21.6602 16.8806V17.6269L21.0139 18L20.3677 17.6269V16.8806L21.0139 16.5075Z" fill="#1B253A"/>
<path d="M4.49584 18.3881L5.78838 19.1343V20.6269L4.49584 21.3731L3.23315 20.6269V19.1343L4.49584 18.3881Z" fill="#1B253A"/>
<path d="M7.49917 19.1343L8.14544 19.5075V20.2537L7.49917 20.6269L6.85291 20.2537V19.5075L7.49917 19.1343Z" fill="#1B253A"/>
<path d="M10.5024 18.3881L11.795 19.1343V20.6269L10.5024 21.3731L9.23975 20.6269V19.1343L10.5024 18.3881Z" fill="#1B253A"/>
<path d="M13.5058 19.1343L14.152 19.5075V20.2537L13.5058 20.6269L12.8595 20.2537V19.5075L13.5058 19.1343Z" fill="#1B253A"/>
<path d="M16.509 18.3881L17.8016 19.1343V20.6269L16.509 21.3731L15.2463 20.6269V19.1343L16.509 18.3881Z" fill="#1B253A"/>
<path d="M19.5123 18.3881L20.8049 19.1343V20.6269L19.5123 21.3731L18.2496 20.6269V19.1343L19.5123 18.3881Z" fill="#1B253A"/>
<path d="M9.00076 21.7612L9.64703 22.1343V22.8806L9.00076 23.2537L8.35449 22.8806V22.1343L9.00076 21.7612Z" fill="#1B253A"/>
<path d="M12.004 21.0149L13.2966 21.7612V23.2537L12.004 24L10.7413 23.2537V21.7612L12.004 21.0149Z" fill="#1B253A"/>
<path d="M15.0074 21.7612L15.6536 22.1343V22.8806L15.0074 23.2537L14.3611 22.8806V22.1343L15.0074 21.7612Z" fill="#1B253A"/>
</svg>
