<svg width="22" height="24" viewBox="0 0 22 24" fill="none" xmlns="http://www.w3.org/2000/svg">
<path fill-rule="evenodd" clip-rule="evenodd" d="M0 3.70026C0 3.70026 8.32268 0 11 0C13.6773 0 22 3.70026 22 3.70026L21.5319 14.7871C21.5319 14.7871 15.8253 23.8326 11 23.8326C6.1747 23.8326 0.468085 14.7871 0.468085 14.7871L0 3.70026Z" fill="url(#paint0_linear)"/>
<mask id="mask0" mask-type="alpha" maskUnits="userSpaceOnUse" x="0" y="0" width="22" height="24">
<path fill-rule="evenodd" clip-rule="evenodd" d="M0 3.70026C0 3.70026 8.32268 0 11 0C13.6773 0 22 3.70026 22 3.70026L21.5319 14.7871C21.5319 14.7871 15.8253 23.8326 11 23.8326C6.1747 23.8326 0.468085 14.7871 0.468085 14.7871L0 3.70026Z" fill="white"/>
</mask>
<g mask="url(#mask0)">
<path fill-rule="evenodd" clip-rule="evenodd" d="M0 7.12883C0 7.12883 8.32268 3.42857 11 3.42857C13.6773 3.42857 22 7.12883 22 7.12883L21.5319 14.7871C21.5319 14.7871 15.8253 23.8326 11 23.8326C6.1747 23.8326 0.468085 14.7871 0.468085 14.7871L0 7.12883Z" fill="url(#paint1_linear)"/>
<path d="M12.52 10.24L11.912 19.12C11.9013 19.28 11.8427 19.36 11.736 19.36H10.856C10.2587 19.36 9.832 19.2427 9.576 19.008C9.32 18.7733 9.192 18.4373 9.192 18C9.192 17.84 9.19733 17.6 9.208 17.28C9.22933 16.96 9.256 16.5867 9.288 16.16C9.32 15.7227 9.352 15.2533 9.384 14.752C9.42667 14.24 9.46933 13.728 9.512 13.216C9.55467 12.6933 9.592 12.176 9.624 11.664C9.66667 11.152 9.704 10.6773 9.736 10.24H7.176C7.05867 10.24 7 10.1653 7 10.016L7.048 9.12C7.05867 8.98133 7.08 8.848 7.112 8.72C7.15467 8.58133 7.21867 8.45867 7.304 8.352C7.38933 8.24533 7.496 8.16 7.624 8.096C7.76267 8.032 7.928 8 8.12 8H15.272C15.336 8 15.3947 8.016 15.448 8.048C15.5013 8.08 15.528 8.13867 15.528 8.224L15.464 9.168C15.4427 9.488 15.352 9.74933 15.192 9.952C15.0427 10.144 14.728 10.24 14.248 10.24H12.52Z" fill="white"/>
<path d="M21.7664 9.12054C21.7664 9.12054 15.2155 10.1431 11.8218 11.3777C8.42822 12.6123 1.87732 17.0185 1.87732 17.0185" stroke="white" stroke-width="0.5" stroke-linecap="square"/>
</g>
<defs>
<linearGradient id="paint0_linear" x1="5.82652" y1="-5.65944" x2="5.82652" y2="5.54943" gradientUnits="userSpaceOnUse">
<stop stop-color="#89898E"/>
<stop offset="1" stop-color="white"/>
</linearGradient>
<linearGradient id="paint1_linear" x1="0" y1="3.42857" x2="0" y2="23.8326" gradientUnits="userSpaceOnUse">
<stop stop-color="#7F46CA"/>
<stop offset="1" stop-color="#51509C"/>
</linearGradient>
</defs>
</svg>
