<?xml version="1.0" encoding="iso-8859-1"?>
<!-- Generator: Adobe Illustrator 19.1.0, SVG Export Plug-In . SVG Version: 6.00 Build 0)  -->
<svg version="1.1" id="Capa_1" xmlns="http://www.w3.org/2000/svg" xmlns:xlink="http://www.w3.org/1999/xlink" x="0px" y="0px"
	 viewBox="0 0 48 48" style="enable-background:new 0 0 48 48;" xml:space="preserve">
<g id="profile">
	<g>
		<path d="M24,0C10.745,0,0,10.745,0,24c0,13.255,10.745,24,24,24c13.255,0,24-10.745,24-24C48,10.745,37.255,0,24,0z M24,46
			c-4.506,0-8.699-1.364-12.191-3.698l0.002,0l2.011-9.858c0.319-2.369,2.29-4.162,4.646-4.32c1.576,1.222,3.48,1.97,5.532,1.97
			c2.06,0,3.97-0.755,5.55-1.985c2.428,0.084,4.481,1.914,4.819,4.402l1.979,9.687C32.824,44.596,28.573,46,24,46z M16,19
			c0-4.315,3.685-8,8-8s8,3.685,8,8c0,4.525-3.904,9-8,9C19.904,28,16,23.525,16,19z M38.115,40.858l-1.775-8.681
			c-0.379-2.808-2.413-5.057-5.031-5.811C32.869,24.438,34,21.521,34,19c0-5.427-4.573-10-10-10c-5.427,0-10,4.573-10,10
			c0,2.541,1.147,5.478,2.73,7.413c-2.549,0.792-4.516,2.993-4.879,5.698l-1.813,8.878C5.133,36.951,2,30.834,2,24
			C2,11.869,11.869,2,24,2s22,9.869,22,22C46,30.762,42.931,36.819,38.115,40.858z"/>
	</g>
</g>
<g>
</g>
<g>
</g>
<g>
</g>
<g>
</g>
<g>
</g>
<g>
</g>
<g>
</g>
<g>
</g>
<g>
</g>
<g>
</g>
<g>
</g>
<g>
</g>
<g>
</g>
<g>
</g>
<g>
</g>
</svg>
