<svg width="933" height="1080" viewBox="0 0 933 1080" fill="none" xmlns="http://www.w3.org/2000/svg">
<path d="M790.819 1210.46C636.099 1153.27 458.898 1167.35 332.768 1096.06C206.949 1024.7 132.587 868.206 159.575 727.651C186.25 587.171 313.964 462.702 403.49 332.878C493.402 203.29 545.053 68.0339 641.189 30.5267C737.636 -7.05512 878.494 52.8003 1000.22 90.5473C1121.95 128.294 1224.78 143.547 1310.72 192.826C1396.72 242.417 1466.22 326.272 1536.85 428.635C1607.49 530.998 1679.33 652.181 1693.04 787.936C1706.75 923.691 1662.26 1073.71 1572 1199.1C1481.43 1324.56 1345.33 1425 1211.16 1410.99C1077.23 1396.59 945.302 1268.05 790.819 1210.46Z" fill="url(#paint0_radial)"/>
<defs>
<radialGradient id="paint0_radial" cx="0" cy="0" r="1" gradientUnits="userSpaceOnUse" gradientTransform="translate(561.5 21) rotate(76.3517) scale(1468.47 1487.18)">
<stop stop-color="#3A84FF"/>
<stop offset="1" stop-color="#BDD6FF" stop-opacity="0"/>
</radialGradient>
</defs>
</svg>
