<svg width="15" height="15" viewBox="0 0 15 15"  xmlns="http://www.w3.org/2000/svg">
<path d="M8.90625 2.8125C8.90625 2.5536 8.6964 2.34375 8.4375 2.34375H3.75C3.4911 2.34375 3.28125 2.5536 3.28125 2.8125V6.5625C3.28125 6.8214 3.4911 7.03125 3.75 7.03125H8.4375C8.6964 7.03125 8.90625 6.8214 8.90625 6.5625V2.8125ZM7.96875 6.09375H4.21875V3.28125H7.96875V6.09375Z" fill="#94979B"/>
<path d="M14.2833 3.32382L12.4139 2.38632C12.1818 2.27004 11.9036 2.36458 11.7878 2.59597C11.672 2.82759 11.7672 3.10913 11.9988 3.22494L12.7108 3.58058C12.6917 3.63155 12.6671 3.68546 12.6671 3.74314C12.6671 4.35346 13.125 4.86891 13.5938 5.063V10.7744C13.5938 11.0328 13.3834 11.2431 13.125 11.2431C12.8666 11.2431 12.6562 11.0328 12.6562 10.7744V7.02439C12.6562 5.89263 11.7188 4.94581 10.7812 4.72802V1.86814C10.7812 0.834287 9.96249 0 8.92863 0H3.30363C2.26978 0 1.40625 0.834287 1.40625 1.86814V12.3596L0.727852 12.6988C0.569004 12.7782 0.46875 12.9405 0.46875 13.1181V14.5244C0.46875 14.7833 0.701016 15 0.959883 15H11.2724C11.5312 15 11.7188 14.7833 11.7188 14.5244V13.1181C11.7188 12.9405 11.6185 12.7782 11.4596 12.6988L10.7812 12.3596V5.70454C11.25 5.89863 11.7188 6.41408 11.7188 7.02439V10.7744C11.7188 11.5499 12.3495 12.1806 13.125 12.1806C13.9005 12.1806 14.5312 11.5499 14.5312 10.7744V3.74314C14.5312 3.56552 14.4422 3.40324 14.2833 3.32382ZM10.7812 14.0625H1.40625V13.4079L2.08465 13.0687C2.2435 12.9893 2.34375 12.827 2.34375 12.6494V1.86812C2.34375 1.35108 2.78657 0.9375 3.30363 0.9375H8.92863C9.44566 0.9375 9.84375 1.35108 9.84375 1.86814V12.6494C9.84375 12.827 9.944 12.9893 10.1029 13.0687L10.7812 13.4079V14.0625Z" />
</svg>
