<svg width="196" height="64" viewBox="0 0 196 64" fill="none" xmlns="http://www.w3.org/2000/svg">
<path d="M12.6681 54.5355C12.6681 53.8359 12.5525 53.1901 12.3214 52.5981C12.0902 52.0061 11.7702 51.4948 11.3613 51.0643C10.9701 50.6337 10.5078 50.3018 9.97445 50.0686C9.44105 49.8175 8.8721 49.6919 8.26759 49.6919C7.66308 49.6919 7.09413 49.8175 6.56073 50.0686C6.02734 50.3018 5.55618 50.6337 5.14724 51.0643C4.75609 51.4948 4.44494 52.0061 4.2138 52.5981C3.98267 53.1901 3.8671 53.8359 3.8671 54.5355C3.8671 55.2352 3.98267 55.881 4.2138 56.473C4.44494 57.065 4.75609 57.5762 5.14724 58.0068C5.55618 58.4373 6.02734 58.7782 6.56073 59.0293C7.09413 59.2625 7.66308 59.3791 8.26759 59.3791C8.8721 59.3791 9.44105 59.2625 9.97445 59.0293C10.5078 58.7782 10.9701 58.4373 11.3613 58.0068C11.7702 57.5762 12.0902 57.065 12.3214 56.473C12.5525 55.881 12.6681 55.2352 12.6681 54.5355ZM16.5352 54.5355C16.5352 55.7554 16.3129 56.8856 15.8684 57.9261C15.4417 58.9665 14.855 59.8814 14.1082 60.6708C13.3615 61.4422 12.4814 62.0521 11.4679 62.5006C10.4723 62.9311 9.40549 63.1464 8.26759 63.1464C7.12969 63.1464 6.05401 62.9311 5.04056 62.5006C4.0449 62.0521 3.17369 61.4422 2.42694 60.6708C1.68019 59.8814 1.08457 58.9665 0.640071 57.9261C0.213357 56.8856 0 55.7554 0 54.5355C0 53.3336 0.213357 52.2124 0.640071 51.1719C1.08457 50.1135 1.68019 49.1986 2.42694 48.4272C3.17369 47.6378 4.0449 47.0279 5.04056 46.5974C6.05401 46.1489 7.12969 45.9246 8.26759 45.9246C9.40549 45.9246 10.4723 46.1489 11.4679 46.5974C12.4814 47.0279 13.3615 47.6378 14.1082 48.4272C14.855 49.1986 15.4417 50.1135 15.8684 51.1719C16.3129 52.2124 16.5352 53.3336 16.5352 54.5355Z" fill="#FFFFFF"/>
<path d="M26.7947 46.0592C27.6659 46.0592 28.466 46.2117 29.1949 46.5166C29.9239 46.8037 30.5551 47.2163 31.0885 47.7544C31.6219 48.2747 32.0397 48.8846 32.3419 49.5843C32.6442 50.2839 32.7953 51.0373 32.7953 51.8446C32.7953 52.6519 32.6442 53.4053 32.3419 54.105C32.0397 54.8046 31.6219 55.4235 31.0885 55.9617C30.5551 56.4819 29.9239 56.8945 29.1949 57.1995C28.466 57.4865 27.6659 57.6301 26.7947 57.6301H24.1277V63.0119H20.2606V46.0592H26.7947ZM26.7947 53.8628C27.3992 53.8628 27.9059 53.6655 28.3148 53.2708C28.7238 52.8582 28.9282 52.3828 28.9282 51.8446C28.9282 51.3064 28.7238 50.84 28.3148 50.4453C27.9059 50.0327 27.3992 49.8264 26.7947 49.8264H24.1277V53.8628H26.7947Z" fill="#FFFFFF"/>
<path d="M43.8518 63.0119H39.9847V49.8264H35.1841V46.0592H48.6523V49.8264H43.8518V63.0119Z" fill="#FFFFFF"/>
<path d="M55.7302 63.0119H51.8631V46.0592H55.7302V63.0119Z" fill="#FFFFFF"/>
<path d="M74.6563 46.0592H78.1233V63.0119H74.2562V54.5355L70.3891 63.0119H67.9888L64.1217 54.5355V63.0119H60.2546V46.0592H63.7217L69.189 58.0337L74.6563 46.0592Z" fill="#FFFFFF"/>
<path d="M86.5253 63.0119H82.6582V46.0592H86.5253V63.0119Z" fill="#FFFFFF"/>
<path d="M95.1835 59.2446H102.784V63.0119H90.2497V59.7828L97.4505 49.8264H90.5164V46.0592H102.384V49.2883L95.1835 59.2446Z" fill="#FFFFFF"/>
<path d="M114.66 56.4191L112.793 50.7683L110.926 56.4191H114.66ZM109.859 59.7828L108.792 63.0119H104.792L110.793 46.0592H114.793L120.794 63.0119H116.793L115.726 59.7828H109.859Z" fill="#FFFFFF"/>
<path d="M129.856 63.0119H125.989V49.8264H121.189V46.0592H134.657V49.8264H129.856V63.0119Z" fill="#FFFFFF"/>
<path d="M141.735 63.0119H137.867V46.0592H141.735V63.0119Z" fill="#FFFFFF"/>
<path d="M158.127 54.5355C158.127 53.8359 158.011 53.1901 157.78 52.5981C157.549 52.0061 157.229 51.4948 156.82 51.0643C156.429 50.6337 155.967 50.3018 155.433 50.0686C154.9 49.8175 154.331 49.6919 153.727 49.6919C153.122 49.6919 152.553 49.8175 152.02 50.0686C151.486 50.3018 151.015 50.6337 150.606 51.0643C150.215 51.4948 149.904 52.0061 149.673 52.5981C149.442 53.1901 149.326 53.8359 149.326 54.5355C149.326 55.2352 149.442 55.881 149.673 56.473C149.904 57.065 150.215 57.5762 150.606 58.0068C151.015 58.4373 151.486 58.7782 152.02 59.0293C152.553 59.2625 153.122 59.3791 153.727 59.3791C154.331 59.3791 154.9 59.2625 155.433 59.0293C155.967 58.7782 156.429 58.4373 156.82 58.0068C157.229 57.5762 157.549 57.065 157.78 56.473C158.011 55.881 158.127 55.2352 158.127 54.5355ZM161.994 54.5355C161.994 55.7554 161.772 56.8856 161.327 57.9261C160.901 58.9665 160.314 59.8814 159.567 60.6708C158.82 61.4422 157.94 62.0521 156.927 62.5006C155.931 62.9311 154.864 63.1464 153.727 63.1464C152.589 63.1464 151.513 62.9311 150.5 62.5006C149.504 62.0521 148.633 61.4422 147.886 60.6708C147.139 59.8814 146.544 58.9665 146.099 57.9261C145.672 56.8856 145.459 55.7554 145.459 54.5355C145.459 53.3336 145.672 52.2124 146.099 51.1719C146.544 50.1135 147.139 49.1986 147.886 48.4272C148.633 47.6378 149.504 47.0279 150.5 46.5974C151.513 46.1489 152.589 45.9246 153.727 45.9246C154.864 45.9246 155.931 46.1489 156.927 46.5974C157.94 47.0279 158.82 47.6378 159.567 48.4272C160.314 49.1986 160.901 50.1135 161.327 51.1719C161.772 52.2124 161.994 53.3336 161.994 54.5355Z" fill="#FFFFFF"/>
<path d="M179.854 46.0592V63.0119H176.387L169.587 53.0555V63.0119H165.72V46.0592H169.187L175.987 56.0155V46.0592H179.854Z" fill="#FFFFFF"/>
<path d="M183.732 50.7683C183.732 50.1224 183.865 49.5125 184.132 48.9384C184.417 48.3464 184.817 47.8352 185.332 47.4046C185.848 46.9561 186.47 46.5974 187.199 46.3283C187.946 46.0592 188.79 45.9246 189.733 45.9246C190.639 45.9246 191.448 46.0592 192.16 46.3283C192.889 46.5974 193.502 46.9741 194 47.4585C194.515 47.9428 194.907 48.5169 195.173 49.1806C195.458 49.8264 195.6 50.535 195.6 51.3064L191.866 51.5755C191.866 50.8938 191.68 50.3646 191.306 49.9879C190.933 49.6112 190.408 49.4228 189.733 49.4228C189.128 49.4228 188.639 49.5932 188.266 49.9341C187.91 50.257 187.732 50.6247 187.732 51.0373C187.732 51.45 187.937 51.7639 188.346 51.9792C188.755 52.1944 189.261 52.4007 189.866 52.5981C190.488 52.7775 191.155 52.9748 191.866 53.1901C192.577 53.4053 193.235 53.7103 193.84 54.105C194.462 54.4996 194.978 55.0199 195.387 55.6657C195.796 56.3115 196 57.1457 196 58.1682C196 58.8499 195.858 59.4957 195.573 60.1057C195.307 60.6977 194.907 61.2179 194.373 61.6664C193.84 62.1149 193.182 62.4737 192.4 62.7428C191.617 63.0119 190.728 63.1464 189.733 63.1464C188.773 63.1464 187.91 63.0119 187.146 62.7428C186.381 62.4737 185.732 62.0969 185.199 61.6126C184.683 61.1103 184.283 60.5273 183.999 59.8635C183.732 59.1818 183.599 58.4373 183.599 57.6301L187.332 57.361C187.332 58.8858 188.132 59.6482 189.733 59.6482C190.479 59.6482 191.039 59.4778 191.413 59.137C191.804 58.7782 192 58.3656 192 57.8991C192 57.4686 191.795 57.1367 191.386 56.9035C190.977 56.6703 190.462 56.455 189.839 56.2577C189.235 56.0604 188.577 55.8541 187.866 55.6388C187.155 55.4235 186.488 55.1275 185.866 54.7508C185.261 54.3561 184.754 53.8449 184.345 53.217C183.936 52.5891 183.732 51.7729 183.732 50.7683Z" fill="#FFFFFF"/>
<path d="M1.64014 0H28.9027V10.1485H13.1191V14.659H25.746V24.8075H13.1191V35.5199H1.64014V0Z" fill="#FFFFFF"/>
<path d="M64.196 0V20.2971C64.196 21.8757 64.6552 23.1161 65.5735 24.0182C66.4918 24.9203 67.7545 25.3713 69.3616 25.3713C70.9686 25.3713 72.2313 24.9203 73.1496 24.0182C74.0679 23.1161 74.5271 21.8757 74.5271 20.2971V0H86.0061V20.2971C86.0061 22.7027 85.6234 24.8827 84.8582 26.8372C84.0929 28.7542 82.9833 30.408 81.5293 31.7987C80.1135 33.1519 78.3726 34.2043 76.3063 34.9561C74.2401 35.7078 71.9252 36.0837 69.3616 36.0837C66.7597 36.0837 64.4256 35.7078 62.3594 34.9561C60.3314 34.2043 58.5905 33.1519 57.1365 31.7987C55.7207 30.408 54.6302 28.7542 53.865 26.8372C53.0997 24.8827 52.7171 22.7027 52.7171 20.2971V0H64.196Z" fill="#FFFFFF"/>
<path d="M111.542 0H139.666V9.58473H123.021V12.9676H138.231V21.9885H123.021V25.9351H140.24V35.5199H111.542V0Z" fill="#FFFFFF"/>
<path d="M164.924 0H176.403V24.8075H191.9V35.5199H164.924V0Z" fill="#FFFFFF"/>
</svg>
