<svg width="38" height="38" viewBox="0 0 38 38" fill="none" xmlns="http://www.w3.org/2000/svg">
<path fill-rule="evenodd" clip-rule="evenodd" d="M19 37C28.9411 37 37 28.9411 37 19C37 9.05887 28.9411 1 19 1C9.05887 1 1 9.05887 1 19C1 28.9411 9.05887 37 19 37Z" fill="#B89E7F" stroke="#212139" stroke-opacity="0.2" stroke-width="0.5"/>
<g transform="translate(12,10)">
    <path xmlns="http://www.w3.org/2000/svg" fill-rule="evenodd" clip-rule="evenodd" d="M0 7C0 2.625 3.55833 0 7 0C10.4417 0 14 2.625 14 7C14 11.2 7.7 17.6167 7.40833 17.9083C7.29167 18.025 7.175 18.0833 7 18.0833C6.825 18.0833 6.70833 18.025 6.59167 17.9083C6.3 17.6167 0 11.1417 0 7ZM7.58348 7.58335H9.33348C9.68348 7.58335 9.91681 7.35001 9.91681 7.00001C9.91681 6.65001 9.68348 6.41668 9.33348 6.41668H7.58348V4.66668C7.58348 4.31668 7.35015 4.08335 7.00015 4.08335C6.65015 4.08335 6.41681 4.31668 6.41681 4.66668V6.41668H4.66681C4.31681 6.41668 4.08348 6.65001 4.08348 7.00001C4.08348 7.35001 4.31681 7.58335 4.66681 7.58335H6.41681V9.33335C6.41681 9.68335 6.65015 9.91668 7.00015 9.91668C7.35015 9.91668 7.58348 9.68335 7.58348 9.33335V7.58335Z" fill="white"/>
</g>
</svg>
