<?xml version="1.0" encoding="iso-8859-1"?>
<!-- Generator: Adobe Illustrator 18.0.0, SVG Export Plug-In . SVG Version: 6.00 Build 0)  -->
<!DOCTYPE svg PUBLIC "-//W3C//DTD SVG 1.1//EN" "http://www.w3.org/Graphics/SVG/1.1/DTD/svg11.dtd">
<svg version="1.1" id="Capa_1" xmlns="http://www.w3.org/2000/svg" xmlns:xlink="http://www.w3.org/1999/xlink" x="0px" y="0px"
	 viewBox="0 0 416.5 416.5" style="enable-background:new 0 0 416.5 416.5;" xml:space="preserve">
<g>
	<path  d="M406.5,251.29h-7.239V109.18c0-5.523-4.478-10-10-10H132.702c-5.522,0-10,4.477-10,10v141.257
		h-13.464V111.208c0-5.523-4.478-10-10-10H72.872c-21.597,0-39.559,15.837-42.9,36.506H10c-5.522,0-10,4.477-10,10v137.179
		c0,5.523,4.478,10,10,10h13.776c4.226,13,16.451,22.427,30.843,22.427s26.617-9.427,30.843-22.427h46.133
		c4.226,13,16.451,22.427,30.843,22.427c12.377,0,23.153-6.974,28.616-17.196c5.463,10.222,16.239,17.196,28.617,17.196
		c17.881,0,32.428-14.547,32.428-32.427c0-8.345-3.17-15.963-8.368-21.716h26.316c-5.197,5.753-8.368,13.371-8.368,21.716
		c0,17.88,14.547,32.427,32.428,32.427c12.378,0,23.154-6.974,28.617-17.196c5.463,10.222,16.239,17.196,28.617,17.196
		c17.881,0,32.428-14.547,32.428-32.427c0-8.345-3.17-15.963-8.368-21.716h4.037c0.883,4.621,4.944,8.113,9.822,8.113H406.5
		c5.522,0,10-4.477,10-10S412.022,251.29,406.5,251.29z M379.261,119.18v94.729H142.702V119.18H379.261z M150.01,284.893
		c0-6.853,5.575-12.428,12.428-12.428s12.427,5.575,12.427,12.428s-5.574,12.427-12.427,12.427S150.01,291.746,150.01,284.893z
		 M207.243,284.893c0-6.853,5.575-12.428,12.428-12.428s12.428,5.575,12.428,12.428s-5.575,12.427-12.428,12.427
		S207.243,291.746,207.243,284.893z M133.422,270.437c-0.715,1.429-1.328,2.917-1.828,4.456h-22.356v-4.456H133.422z
		 M72.872,121.208h16.366v16.506H50.461C53.433,128.163,62.355,121.208,72.872,121.208z M20,187.366h32.964v11.963H20V187.366z
		 M20,219.329h42.964c5.522,0,10-4.477,10-10v-31.963c0-5.523-4.478-10-10-10H20v-9.651h69.238v117.179h-3.776
		c-4.226-13.001-16.451-22.428-30.843-22.428s-26.617,9.427-30.843,22.428H20V219.329z M67.047,284.893
		c0,6.853-5.575,12.427-12.428,12.427s-12.428-5.575-12.428-12.427s5.575-12.428,12.428-12.428S67.047,278.041,67.047,284.893z
		 M363.77,284.893c0,6.853-5.575,12.427-12.428,12.427s-12.428-5.575-12.428-12.427s5.575-12.428,12.428-12.428
		S363.77,278.041,363.77,284.893z M294.107,297.32c-6.853,0-12.428-5.575-12.428-12.427s5.575-12.428,12.428-12.428
		s12.428,5.575,12.428,12.428S300.96,297.32,294.107,297.32z M318.167,263.177h9.114c-1.77,1.959-3.303,4.137-4.557,6.484
		C321.47,267.314,319.938,265.137,318.167,263.177z M142.702,243.177v-9.268h236.559v9.268H142.702z"/>
</g>
<g>
</g>
<g>
</g>
<g>
</g>
<g>
</g>
<g>
</g>
<g>
</g>
<g>
</g>
<g>
</g>
<g>
</g>
<g>
</g>
<g>
</g>
<g>
</g>
<g>
</g>
<g>
</g>
<g>
</g>
</svg>
