<svg width="18" height="20" viewBox="0 0 18 20" fill="none" xmlns="http://www.w3.org/2000/svg">
<path d="M2.62527 4.36674H2.44985C2.08049 4.36674 1.7809 4.6662 1.7809 5.03563V7.36176C1.7809 7.73112 2.08043 8.03072 2.44985 8.03072H2.62527V10.0863C1.5149 10.5079 0.723389 11.5823 0.723389 12.8386V15.155C0.723389 16.01 1.09012 16.7807 1.67423 17.3188V18.3802C1.67423 19.2734 2.45437 20 3.41335 20H4.12588C5.08487 20 5.865 19.2734 5.865 18.3802V18.0981H12.1346V18.3802C12.1346 19.2734 12.9148 20 13.8738 20H14.5862C15.5451 20 16.3253 19.2734 16.3253 18.3802V17.319C16.9095 16.7809 17.2764 16.0101 17.2764 15.1549V12.8385C17.2764 11.5822 16.4847 10.5078 15.3744 10.0863V8.03065H15.5498C15.9191 8.03065 16.2187 7.73112 16.2187 7.36169V5.03563C16.2187 4.66627 15.9192 4.36674 15.5498 4.36674H15.3744L15.3744 1.98903L16.0789 1.07819C16.305 0.785932 16.2513 0.365865 15.9591 0.139871C15.6668 -0.0861223 15.2468 -0.0325869 15.0208 0.259669L14.3771 1.09166H3.62245L2.97894 0.259669C2.75295 -0.0325869 2.33288 -0.0861223 2.04056 0.139871C1.74837 0.365865 1.69463 0.786 1.9207 1.07819L2.62527 1.98903V4.36674ZM15.9385 15.155C15.9385 16.0402 15.2184 16.7604 14.3332 16.7604H3.66655C2.78144 16.7604 2.06123 16.0402 2.06123 15.155V14.7183L4.52783 15.5406C4.5349 15.9039 4.83113 16.1962 5.19612 16.1962H12.8036C13.1686 16.1962 13.4647 15.9039 13.4719 15.5406L15.9386 14.7183V15.155H15.9385ZM12.9659 8.96446L9.66871 8.14015V4.57657H14.0367V9.89543H13.4725V9.61341C13.4725 9.30648 13.2636 9.03887 12.9659 8.96446ZM8.99982 9.35186L12.1347 10.1356V14.8585H5.86494V10.1356L8.99982 9.35186ZM14.0366 3.2388H3.96305V2.42944H14.0366V3.2388ZM3.96305 4.57657H8.33093V8.14015L5.03376 8.96446C4.73605 9.0388 4.52716 9.30641 4.52716 9.61341V9.89543H3.96305V4.57657ZM15.9385 12.8386V13.3082L13.4725 14.1302V11.2333H14.3332C15.2184 11.2333 15.9385 11.9534 15.9385 12.8386ZM3.66655 11.2333H4.52716V14.1301L2.06123 13.3082V12.8386C2.06123 11.9534 2.78137 11.2333 3.66655 11.2333ZM4.52723 18.3802C4.52723 18.5134 4.35558 18.6622 4.12588 18.6622H3.41335C3.18373 18.6622 3.01201 18.5133 3.01201 18.3802V18.0239C3.22272 18.0719 3.4415 18.0982 3.66655 18.0982H4.52723V18.3802ZM14.9875 18.3802C14.9875 18.5134 14.8158 18.6622 14.5862 18.6622H13.8738C13.6441 18.6622 13.4724 18.5133 13.4724 18.3802V18.0981H14.3332C14.5581 18.0981 14.7769 18.0719 14.9875 18.0239V18.3802Z" />
</svg>
