<svg width="13" height="15" viewBox="0 0 13 15" fill="none" xmlns="http://www.w3.org/2000/svg">
<path d="M11.3991 0H3.19318C2.62293 0 2.16072 0.462292 2.16072 1.03246V8.22941H0C0 5.55502 0 11.8114 0 10.2943H2.16072V10.9605C2.16072 11.5308 2.62293 11.993 3.19318 11.993H3.93275C4.12148 13.6822 5.55767 15 7.29632 15C9.03497 15 10.4712 13.6822 10.6599 11.993H11.399C11.9692 11.993 12.4315 11.5308 12.4315 10.9605V1.03246C12.4316 0.462292 11.9693 0 11.3991 0ZM4.22563 2.06491H10.3667V9.92809H10.2296C9.6442 8.91397 8.54906 8.22941 7.29632 8.22941C6.04358 8.22941 4.94843 8.91397 4.36299 9.92809H4.22563V2.06491ZM7.29632 12.9351C6.56832 12.9351 5.97593 12.3428 5.97593 11.6147C5.97593 10.8867 6.56823 10.2943 7.29632 10.2943C8.02441 10.2943 8.6167 10.8866 8.6167 11.6147C8.6167 12.3427 8.02432 12.9351 7.29632 12.9351Z" />
</svg>
