<svg width="20" height="20" viewBox="0 0 20 20" xmlns="http://www.w3.org/2000/svg">
<g clip-path="url(#clip0)">
<path d="M19.4426 5.9509H15.0124C14.7045 5.9509 14.455 6.20048 14.455 6.5083V10.3938H13.2884V6.5083C13.2884 6.20048 13.0389 5.9509 12.731 5.9509H1.38235C1.13768 5.9509 0.921629 6.11045 0.849613 6.34429L0.0246594 9.02383C0.00833872 9.07694 0 9.13223 0 9.18784V11.8683C0 12.1761 0.249582 12.4257 0.557401 12.4257H1.18958C1.29148 13.3376 2.06684 14.0491 3.00555 14.0491C3.9443 14.0491 4.71967 13.3375 4.82152 12.4255H6.85117C6.95302 13.3375 7.72839 14.0491 8.66714 14.0491C9.16037 14.0491 9.6083 13.8523 9.93739 13.5336C10.2665 13.8523 10.7144 14.0491 11.2076 14.0491C12.0501 14.0491 12.7609 13.4759 12.9715 12.6992C13.1588 12.6093 13.2884 12.4185 13.2884 12.1969V11.5086H14.455V11.8683C14.455 12.1761 14.7045 12.4257 15.0124 12.4257H15.4117C15.5135 13.3376 16.2889 14.0491 17.2276 14.0491C18.1662 14.0491 18.9416 13.3376 19.0435 12.4257H19.4426C19.7504 12.4257 20 12.1761 20 11.8683V6.5083C20 6.20048 19.7504 5.9509 19.4426 5.9509ZM12.1736 10.6709C11.8932 10.4955 11.5621 10.3937 11.2076 10.3937C10.7144 10.3937 10.2665 10.5905 9.93739 10.9092C9.60826 10.5905 9.16037 10.3937 8.66714 10.3937C7.99086 10.3937 7.39966 10.7632 7.08359 11.3107H5.28996V7.0657H12.1736V10.6709ZM1.79394 7.0657H2.39727V8.63053H1.31221L1.79394 7.0657ZM1.1148 9.74533H2.95467C3.26249 9.74533 3.51207 9.49579 3.51207 9.18793V7.0657H4.17516V10.8183C3.85797 10.5535 3.45013 10.3938 3.00555 10.3938C2.32922 10.3938 1.73793 10.7634 1.42191 11.3109H1.1148V9.74533ZM3.00555 12.9343C2.61247 12.9343 2.2927 12.6145 2.2927 12.2214C2.2927 11.8284 2.61247 11.5086 3.00555 11.5086C3.39859 11.5086 3.7184 11.8284 3.7184 12.2214C3.7184 12.6145 3.39859 12.9343 3.00555 12.9343ZM8.66714 12.9343C8.27411 12.9343 7.95429 12.6145 7.95429 12.2214C7.95429 11.8284 8.27406 11.5086 8.66714 11.5086C9.06022 11.5086 9.37999 11.8284 9.37999 12.2214C9.37999 12.6145 9.06022 12.9343 8.66714 12.9343ZM11.2076 12.9343C10.8146 12.9343 10.4948 12.6145 10.4948 12.2214C10.4948 11.8284 10.8146 11.5086 11.2076 11.5086C11.6007 11.5086 11.9205 11.8284 11.9205 12.2214C11.9205 12.6145 11.6007 12.9343 11.2076 12.9343ZM15.5698 7.0657H18.8852V11.3109H18.8112C18.4951 10.7634 17.9039 10.3938 17.2276 10.3938C16.5512 10.3938 15.96 10.7634 15.6439 11.3109H15.5698V7.0657ZM17.2276 12.9343C16.8345 12.9343 16.5147 12.6145 16.5147 12.2214C16.5147 11.8284 16.8345 11.5086 17.2276 11.5086C17.6207 11.5086 17.9404 11.8284 17.9404 12.2214C17.9404 12.6145 17.6206 12.9343 17.2276 12.9343Z" fill="#94979B"/>
</g>
<defs>
<clipPath id="clip0">
<rect width="20" height="20" />
</clipPath>
</defs>
</svg>
