<svg width="432" height="792" viewBox="0 0 432 792" fill="none" xmlns="http://www.w3.org/2000/svg">
<rect opacity="0.596977" x="27.5771" y="39.9229" width="39" height="39" transform="rotate(45 27.5771 39.9229)" fill="url(#paint0_linear)"/>
<rect opacity="0.596977" x="403.577" y="736" width="39" height="39" transform="rotate(45 403.577 736)" fill="url(#paint1_linear)"/>
<rect opacity="0.596977" x="330.289" y="684" width="21.6213" height="21.6213" transform="rotate(45 330.289 684)" fill="url(#paint2_linear)"/>
<rect opacity="0.596977" x="10.6443" y="742" width="15.0533" height="15.0533" transform="rotate(45 10.6443 742)" fill="url(#paint3_linear)"/>
<rect opacity="0.596977" x="386.644" width="15.0533" height="15.0533" transform="rotate(45 386.644 0)" fill="url(#paint4_linear)"/>
<rect opacity="0.596977" x="218.322" y="43.3221" width="7.52665" height="7.52665" transform="rotate(45 218.322 43.3221)" fill="url(#paint5_linear)"/>
<defs>
<linearGradient id="paint0_linear" x1="12.3762" y1="56.8566" x2="38.5994" y2="77.3119" gradientUnits="userSpaceOnUse">
<stop stop-color="#B949BE" stop-opacity="0.539289"/>
<stop offset="1" stop-color="#B949BE"/>
</linearGradient>
<linearGradient id="paint1_linear" x1="388.376" y1="752.934" x2="414.599" y2="773.389" gradientUnits="userSpaceOnUse">
<stop stop-color="#B949BE" stop-opacity="0.539289"/>
<stop offset="1" stop-color="#B949BE"/>
</linearGradient>
<linearGradient id="paint2_linear" x1="321.861" y1="693.388" x2="336.399" y2="704.728" gradientUnits="userSpaceOnUse">
<stop stop-color="#B949BE" stop-opacity="0.539289"/>
<stop offset="1" stop-color="#B949BE"/>
</linearGradient>
<linearGradient id="paint3_linear" x1="4.77699" y1="748.536" x2="14.8987" y2="756.431" gradientUnits="userSpaceOnUse">
<stop stop-color="#B949BE" stop-opacity="0.539289"/>
<stop offset="1" stop-color="#B949BE"/>
</linearGradient>
<linearGradient id="paint4_linear" x1="380.777" y1="6.53611" x2="390.899" y2="14.4315" gradientUnits="userSpaceOnUse">
<stop stop-color="#B949BE" stop-opacity="0.539289"/>
<stop offset="1" stop-color="#B949BE"/>
</linearGradient>
<linearGradient id="paint5_linear" x1="215.389" y1="46.5902" x2="220.449" y2="50.5379" gradientUnits="userSpaceOnUse">
<stop stop-color="#B949BE" stop-opacity="0.539289"/>
<stop offset="1" stop-color="#B949BE"/>
</linearGradient>
</defs>
</svg>
