<svg width="945" height="338" viewBox="0 0 945 338" fill="none" xmlns="http://www.w3.org/2000/svg">
<path d="M928 797.638C902.662 923.686 934.917 1058.44 895.274 1164.17C855.536 1269.68 744.034 1345.84 632.555 1342.03C521.171 1338.46 409.904 1255.15 299.127 1201.89C188.487 1148.31 78.1065 1124.87 37.6098 1055.37C-2.98184 985.644 26.0793 869.949 40.4307 771.655C54.7821 673.362 54.0977 592.335 81.6539 520.21C109.441 447.99 165.604 384.346 235.881 317.594C306.157 250.841 390.777 180.883 493.643 153.928C596.508 126.973 717.388 143.115 824.837 197.474C932.38 252.063 1026.17 344.732 1031.59 449.739C1036.69 554.611 953.665 671.726 928 797.638Z" fill="url(#paint0_radial)"/>
<defs>
<radialGradient id="paint0_radial" cx="0" cy="0" r="1" gradientUnits="userSpaceOnUse" gradientTransform="translate(602.962 55.6425) rotate(95.8336) scale(525.375 532.087)">
<stop stop-color="#BDD6FF" stop-opacity="0"/>
<stop offset="0.804265" stop-color="#3A84FF"/>
</radialGradient>
</defs>
</svg>
