<svg width="899" height="760" viewBox="0 0 899 760" fill="none" xmlns="http://www.w3.org/2000/svg">
<path d="M547.79 1027.57C431.307 973.143 292.751 972.622 199.387 909.103C106.27 845.545 58.6314 719.197 88.6873 611.778C118.496 504.397 225.753 415.984 303.694 320.941C381.919 226.108 430.79 124.399 507.892 101.483C585.242 78.5293 690.785 134.122 782.898 171.308C875.011 208.493 953.903 226.987 1017.47 270.815C1081.07 314.89 1129.63 384.509 1177.87 468.576C1226.12 552.643 1274.08 651.405 1275.95 757.728C1277.82 864.05 1233.55 977.685 1155.33 1069.23C1076.86 1160.82 964.643 1230.04 861.33 1210.48C758.226 1190.64 664.064 1082.27 547.79 1027.57Z" fill="url(#paint0_radial)"/>
<defs>
<radialGradient id="paint0_radial" cx="0" cy="0" r="1" gradientUnits="userSpaceOnUse" gradientTransform="translate(511.131 31.4763) rotate(69.1371) scale(926.253 938.086)">
<stop stop-color="#BDD6FF" stop-opacity="0"/>
<stop offset="1" stop-color="#3A84FF"/>
</radialGradient>
</defs>
</svg>
