<svg width="25" height="24" viewBox="0 0 25 24" fill="none" xmlns="http://www.w3.org/2000/svg">
<path d="M4.01791 4.91555C5.63489 1.83761 8.74385 0 12.3329 0C15.922 0 19.031 1.83761 20.6479 4.91555C22.2139 7.89405 21.9608 11.3081 19.9831 14.0335L12.3329 24L4.69269 14.0463C2.70505 11.3075 2.45193 7.89344 4.01791 4.91555Z" fill="#F06565"/>
<path d="M17.4426 5.78L17.4508 5.77008L15.1175 3.88008L14.3825 4.78658L15.5882 5.76308C15.0095 6.12008 14.649 6.79617 14.775 7.54925C14.8625 8.07367 15.2236 8.52692 15.6909 8.78067C16.213 9.06475 16.6709 9.0385 17.078 8.89383L17.0693 12.5C17.0693 12.5799 17.0541 12.6563 17.0238 12.7281C16.9946 12.7963 16.952 12.8593 16.8972 12.9136C16.8447 12.9661 16.7817 13.0093 16.7135 13.0378C16.57 13.0985 16.4031 13.0985 16.2585 13.0378C16.1908 13.0093 16.1272 12.9661 16.073 12.9113C16.0205 12.8587 15.9779 12.7963 15.9487 12.7281C15.9184 12.6563 15.9032 12.5799 15.9032 12.5L15.9166 11.3333C15.9166 11.0977 15.8705 10.8684 15.779 10.652C15.6909 10.4437 15.5643 10.2553 15.405 10.0972C15.2446 9.93683 15.0568 9.81025 14.8485 9.721C14.6321 9.63 14.4029 9.58333 14.1666 9.58333H13.5833V7.25V4.91667C13.5833 4.27267 13.0606 3.75 12.4166 3.75H8.33329C7.68929 3.75 7.16663 4.27267 7.16663 4.91667V7.25V13.0833C7.16663 13.7273 7.68929 14.25 8.33329 14.25H12.4166C13.0606 14.25 13.5833 13.7273 13.5833 13.0833V10.75H14.1666C14.246 10.75 14.3224 10.7657 14.3947 10.7955C14.4624 10.8252 14.526 10.8672 14.5802 10.9221C14.6327 10.9746 14.6753 11.0382 14.7045 11.1064C14.7348 11.1782 14.75 11.2546 14.75 11.3333L14.736 12.5C14.736 12.7368 14.782 12.9661 14.8736 13.1813C14.9617 13.3907 15.0883 13.578 15.2475 13.7361C15.408 13.8977 15.5958 14.0243 15.804 14.1123C16.0205 14.2045 16.2491 14.25 16.486 14.25C16.7228 14.25 16.9515 14.2045 17.1673 14.1123C17.3761 14.0248 17.564 13.8982 17.722 13.7384C17.883 13.578 18.0096 13.3907 18.0983 13.1825C18.1899 12.9661 18.236 12.7368 18.236 12.5L18.25 7.25C18.25 6.63225 17.9268 6.09267 17.4426 5.78ZM12.4166 6.66667H8.33329V4.91667H12.4166V6.66667ZM16.5 7.83333C16.178 7.83333 15.9166 7.572 15.9166 7.25C15.9166 6.92858 16.178 6.66667 16.5 6.66667C16.822 6.66667 17.0833 6.92858 17.0833 7.25C17.0833 7.572 16.822 7.83333 16.5 7.83333Z" fill="white"/>
</svg>
