<svg width="20" height="20" viewBox="0 0 20 20" fill="none" xmlns="http://www.w3.org/2000/svg">
<path fill-rule="evenodd" clip-rule="evenodd" d="M16.2501 10C16.2501 10.2834 16.2251 10.55 16.1918 10.8167L17.9501 12.1917C18.1084 12.3167 18.1501 12.5417 18.0501 12.725L16.3834 15.6084C16.3084 15.7417 16.1668 15.8167 16.0251 15.8167C15.9751 15.8167 15.9251 15.8084 15.8751 15.7917L13.8001 14.9584C13.3668 15.2834 12.9001 15.5667 12.3918 15.775L12.0751 17.9834C12.0501 18.1834 11.8751 18.3334 11.6668 18.3334H8.33344C8.12511 18.3334 7.95011 18.1834 7.92511 17.9834L7.60844 15.775C7.10011 15.5667 6.63344 15.2917 6.20011 14.9584L4.12511 15.7917C4.08344 15.8084 4.03344 15.8167 3.98344 15.8167C3.83344 15.8167 3.69178 15.7417 3.61678 15.6084L1.95011 12.725C1.85011 12.5417 1.89178 12.3167 2.05011 12.1917L3.80844 10.8167C3.77511 10.55 3.75011 10.275 3.75011 10C3.75011 9.72502 3.77511 9.45002 3.80844 9.18335L2.05011 7.80835C1.89178 7.68335 1.84178 7.45835 1.95011 7.27502L3.61678 4.39169C3.69178 4.25835 3.83344 4.18335 3.97511 4.18335C4.02511 4.18335 4.07511 4.19169 4.12511 4.20835L6.20011 5.04169C6.63344 4.71669 7.10011 4.43335 7.60844 4.22502L7.92511 2.01669C7.95011 1.81669 8.12511 1.66669 8.33344 1.66669H11.6668C11.8751 1.66669 12.0501 1.81669 12.0751 2.01669L12.3918 4.22502C12.9001 4.43335 13.3668 4.70835 13.8001 5.04169L15.8751 4.20835C15.9168 4.19169 15.9668 4.18335 16.0168 4.18335C16.1668 4.18335 16.3084 4.25835 16.3834 4.39169L18.0501 7.27502C18.1501 7.45835 18.1084 7.68335 17.9501 7.80835L16.1918 9.18335C16.2251 9.45002 16.2501 9.71669 16.2501 10ZM14.5834 10C14.5834 9.82502 14.5751 9.65002 14.5418 9.39169L14.4251 8.45002L15.1668 7.86669L16.0584 7.15835L15.4751 6.15002L14.4168 6.57502L13.5334 6.93335L12.7751 6.35002C12.4418 6.10002 12.1084 5.90835 11.7501 5.75835L10.8668 5.40002L10.7334 4.45835L10.5751 3.33335H9.41678L9.25011 4.45835L9.11678 5.40002L8.23344 5.75835C7.89178 5.90002 7.55011 6.10002 7.19178 6.36669L6.44178 6.93335L5.57511 6.58335L4.51678 6.15835L3.93344 7.16669L4.83344 7.86669L5.57511 8.45002L5.45844 9.39169C5.43344 9.64169 5.41678 9.83335 5.41678 10C5.41678 10.1667 5.43344 10.3584 5.45844 10.6167L5.57511 11.5584L4.83344 12.1417L3.93344 12.8417L4.51678 13.85L5.57511 13.425L6.45844 13.0667L7.21678 13.65C7.55011 13.9 7.88344 14.0917 8.24178 14.2417L9.12511 14.6L9.25844 15.5417L9.41678 16.6667H10.5834L10.7501 15.5417L10.8834 14.6L11.7668 14.2417C12.1084 14.1 12.4501 13.9 12.8084 13.6334L13.5584 13.0667L14.4251 13.4167L15.4834 13.8417L16.0668 12.8334L15.1668 12.1334L14.4251 11.55L14.5418 10.6084C14.5668 10.3584 14.5834 10.175 14.5834 10ZM10.0001 6.66669C8.15844 6.66669 6.66678 8.15835 6.66678 10C6.66678 11.8417 8.15844 13.3334 10.0001 13.3334C11.8418 13.3334 13.3334 11.8417 13.3334 10C13.3334 8.15835 11.8418 6.66669 10.0001 6.66669ZM8.33344 10C8.33344 10.9167 9.08344 11.6667 10.0001 11.6667C10.9168 11.6667 11.6668 10.9167 11.6668 10C11.6668 9.08335 10.9168 8.33335 10.0001 8.33335C9.08344 8.33335 8.33344 9.08335 8.33344 10Z" />
</svg>
