<svg width="16" height="17" viewBox="0 0 16 17" fill="none" xmlns="http://www.w3.org/2000/svg">
<path d="M8 0.666656C5.7025 0.666656 3.83333 2.53582 3.83333 4.83332C3.83333 7.13082 5.7025 8.99999 8 8.99999C10.2975 8.99999 12.1667 7.13082 12.1667 4.83332C12.1667 2.53582 10.2975 0.666656 8 0.666656ZM8 7.33332C6.62167 7.33332 5.5 6.21166 5.5 4.83332C5.5 3.45499 6.62167 2.33332 8 2.33332C9.37833 2.33332 10.5 3.45499 10.5 4.83332C10.5 6.21166 9.37833 7.33332 8 7.33332ZM15.5 16.5V15.6667C15.5 12.4508 12.8825 9.83332 9.66667 9.83332H6.33333C3.11667 9.83332 0.5 12.4508 0.5 15.6667V16.5H2.16667V15.6667C2.16667 13.3692 4.03583 11.5 6.33333 11.5H9.66667C11.9642 11.5 13.8333 13.3692 13.8333 15.6667V16.5H15.5Z" />
</svg>
